<?xml version="1.0" encoding="UTF-8"?>
<svg width="500" height="500" version="1.1" viewBox="0 0 132.29 132.29" xmlns="http://www.w3.org/2000/svg">
 <defs>
  <linearGradient id="linearGradient1993" x1="310.86" x2="410.99" y1="-1.514" y2="326.39" gradientTransform="matrix(.31974 0 0 .348 -63.113 -1.8232)" gradientUnits="userSpaceOnUse">
   <stop stop-color="#fe879d" offset="0"/>
   <stop stop-color="#ed0528" offset="1"/>
  </linearGradient>
  <linearGradient id="linearGradient2001" x1="77.217" x2="102.98" y1="-13.989" y2="104.22" gradientTransform="matrix(1.2085,0,0,1.3153,-63.113,-1.8232)" gradientUnits="userSpaceOnUse">
   <stop stop-color="#fe3036" offset="0"/>
   <stop stop-color="#a20800" offset="1"/>
  </linearGradient>
 </defs>
 <g transform="matrix(.50977 0 0 .50979 40.408 37.912)">
  <path d="m-46.761-69.179 9.0641 17.087 130.32 72.329-18.856 9.2562-8.3134-15.673-121.48-74.552 9.0635 17.087 39.952 55.423-67.066 151.08 9.0641 17.086 39.843-19.249c5.8453-15.727 11.483-30.897 16.925-45.54l183.29-91.577-9.0641-17.087zm5.6329 29.112 95.853 58.823-28.181 12.965-0.44154-8.984-9.0641-17.086c-7.4072 19.93-15.228 40.974-23.497 63.222l9.0641 17.086 110.61-54.295-9.0641-17.086-81.362-45.157 126.99 45.167-167.09 83.479c-5.4421 14.642-11.08 29.812-16.925 45.54l-18.649 9.0094 56.176-126.54-9.0641-17.086zm61.327 78.69 7.225 13.62-15.029 7.3773c2.6243-7.061 5.2739-14.191 7.8037-20.998z" fill="url(#linearGradient1993)" stroke-width="1.9615"/>
  <path d="m-46.761-69.178 150.92 83.757-110.61 54.296c8.2695-22.25 16.09-43.292 23.497-63.223l1.4626 29.771 46.955-21.602-121.48-74.553 50.254 69.717-68.307 153.88 39.843-19.249c5.8453-15.727 11.483-30.898 16.925-45.54l183.29-91.576-212.74-75.669z" fill="url(#linearGradient2001)" stroke-width="1.9615"/>
 </g>
</svg>
